<?xml version="1.0" encoding="UTF-8" standalone="no"?>
<svg
   xmlns:dc="http://purl.org/dc/elements/1.1/"
   xmlns:cc="http://creativecommons.org/ns#"
   xmlns:rdf="http://www.w3.org/1999/02/22-rdf-syntax-ns#"
   xmlns:svg="http://www.w3.org/2000/svg"
   xmlns="http://www.w3.org/2000/svg"
   xmlns:sodipodi="http://sodipodi.sourceforge.net/DTD/sodipodi-0.dtd"
   xmlns:inkscape="http://www.inkscape.org/namespaces/inkscape"
   sodipodi:docname="nbp-logo-2021_v3.svg"
   inkscape:version="1.0 (4035a4fb49, 2020-05-01)"
   id="svg8"
   version="1.1"
   viewBox="0 0 29.993166 29.993"
   height="113.35937"
   width="113.36">
  <defs
     id="defs2">
    <style
       id="style847">.cls-1{fill:#1d2d4f;}.cls-2{fill:#c6b27b;}</style>
    <style
       id="style1045">.cls-1{fill:#1d2d4f;}.cls-2{fill:#c6b27b;}</style>
  </defs>
  <sodipodi:namedview
     units="px"
     inkscape:window-maximized="1"
     inkscape:window-y="-8"
     inkscape:window-x="-8"
     inkscape:window-height="1017"
     inkscape:window-width="1920"
     inkscape:guide-bbox="true"
     showguides="true"
     showgrid="false"
     inkscape:document-rotation="0"
     inkscape:current-layer="layer1"
     inkscape:document-units="mm"
     inkscape:cy="108.42429"
     inkscape:cx="109.40237"
     inkscape:zoom="7.2127136"
     inkscape:pageshadow="2"
     inkscape:pageopacity="0.0"
     borderopacity="1.0"
     bordercolor="#666666"
     pagecolor="#ffffff"
     id="base" />
  <metadata
     id="metadata5">
    <rdf:RDF>
      <cc:Work
         rdf:about="">
        <dc:format>image/svg+xml</dc:format>
        <dc:type
           rdf:resource="http://purl.org/dc/dcmitype/StillImage" />
        <dc:title></dc:title>
      </cc:Work>
    </rdf:RDF>
  </metadata>
  <g
     id="layer1"
     inkscape:groupmode="layer"
     inkscape:label="Warstwa 1">
    <g
       transform="scale(0.26458333)"
       id="g935">
      <path
         class="cls-1"
         d="M 113.36,56.68 A 56.68,56.68 0 1 1 56.68,0 56.68,56.68 0 0 1 113.36,56.68 Z"
         id="path851" />
      <path
         class="cls-2"
         d="m 104.24,55 v 3.33 h -0.08 a 47.78,47.78 0 0 1 -1.18,9 h 0.08 l -0.87,3.22 h -0.07 A 47.28,47.28 0 0 1 98.65,79 h 0.06 L 97,81.89 h -0.06 a 48,48 0 0 1 -5.55,7.21 l 0.06,0.05 -2.35,2.36 -0.06,-0.06 A 48,48 0 0 1 81.87,97 v 0.06 L 79,98.69 v 0 a 46.58,46.58 0 0 1 -8.4,3.48 v 0.06 l -3.22,0.86 v -0.06 a 47.67,47.67 0 0 1 -9,1.18 v 0.07 H 55 v -0.07 A 47.67,47.67 0 0 1 46,103 v 0.06 l -3.22,-0.86 v -0.06 a 47,47 0 0 1 -8.41,-3.48 v 0 L 31.45,97 v -0.06 a 48,48 0 0 1 -7.21,-5.55 l -0.06,0.06 -2.35,-2.36 0.06,-0.05 A 47.37,47.37 0 0 1 16.35,81.82 H 16.28 L 14.65,79 h 0.06 a 47.28,47.28 0 0 1 -3.47,-8.4 h -0.07 l -0.86,-3.22 h 0.07 a 47.78,47.78 0 0 1 -1.18,-9 H 9.12 V 55 H 9.2 a 47.67,47.67 0 0 1 1.18,-9 h -0.07 l 0.86,-3.22 h 0.08 a 46.58,46.58 0 0 1 3.48,-8.4 h -0.08 l 1.67,-2.89 h 0.08 a 46.8,46.8 0 0 1 5.54,-7.21 l -0.07,-0.07 2.35,-2.36 0.07,0.07 a 47.88,47.88 0 0 1 7.21,-5.53 l -0.05,-0.08 2.89,-1.67 v 0.08 a 46.88,46.88 0 0 1 8.4,-3.48 V 11.16 L 46,10.29 v 0.09 A 46.87,46.87 0 0 1 55,9.2 V 9.1 h 3.34 v 0.1 a 46.87,46.87 0 0 1 9,1.18 v -0.09 l 3.22,0.87 v 0.08 A 46.88,46.88 0 0 1 79,14.72 v -0.08 l 2.89,1.67 v 0.08 a 47.88,47.88 0 0 1 7.21,5.53 l 0.07,-0.07 2.35,2.36 -0.07,0.07 A 46.8,46.8 0 0 1 97,31.49 h 0.08 l 1.67,2.89 h -0.08 a 46.58,46.58 0 0 1 3.48,8.4 h 0.08 L 103.1,46 H 103 a 47.67,47.67 0 0 1 1.18,9 z"
         id="path853" />
      <path
         class="cls-1"
         d="m 97.58,58.33 h 6.58 a 47.78,47.78 0 0 1 -1.18,9 l -6.36,-1.71 -0.86,3.22 6.36,1.71 A 47.28,47.28 0 0 1 98.65,79 l -5.72,-3.29 -1.66,2.88 5.73,3.27 a 48,48 0 0 1 -5.55,7.21 l -4.65,-4.66 -2.36,2.36 4.66,4.65 A 48,48 0 0 1 81.87,97 l -3.3,-5.72 -2.88,1.67 3.31,5.69 a 46.58,46.58 0 0 1 -8.4,3.48 l -1.71,-6.37 -3.22,0.86 1.7,6.37 a 47.67,47.67 0 0 1 -9,1.18 V 97.57 H 55 v 6.59 A 47.67,47.67 0 0 1 46,103 l 1.7,-6.37 -3.22,-0.86 -1.7,6.37 a 47,47 0 0 1 -8.41,-3.48 l 3.3,-5.72 -2.88,-1.67 -3.3,5.73 a 48,48 0 0 1 -7.21,-5.55 l 4.65,-4.65 -2.35,-2.36 -4.65,4.66 a 47.37,47.37 0 0 1 -5.54,-7.22 l 5.7,-3.29 -1.66,-2.88 -5.72,3.29 a 47.28,47.28 0 0 1 -3.47,-8.4 l 6.36,-1.71 -0.86,-3.22 -6.36,1.71 a 47.78,47.78 0 0 1 -1.18,-9 h 6.58 V 55 H 9.2 a 47.67,47.67 0 0 1 1.18,-9 l 6.36,1.7 0.86,-3.22 -6.35,-1.7 a 46.58,46.58 0 0 1 3.48,-8.4 l 5.7,3.29 1.66,-2.89 -5.69,-3.29 a 46.8,46.8 0 0 1 5.54,-7.21 l 4.64,4.64 2.35,-2.35 -4.64,-4.65 a 47.88,47.88 0 0 1 7.21,-5.53 l 3.29,5.69 2.88,-1.67 -3.29,-5.69 a 46.88,46.88 0 0 1 8.4,-3.48 l 1.7,6.35 L 47.7,16.73 46,10.38 A 46.87,46.87 0 0 1 55,9.2 v 6.57 h 3.34 V 9.2 a 46.87,46.87 0 0 1 9,1.18 l -1.7,6.35 3.22,0.86 1.7,-6.35 A 46.88,46.88 0 0 1 79,14.72 l -3.29,5.69 2.88,1.67 3.29,-5.69 a 47.88,47.88 0 0 1 7.21,5.53 l -4.65,4.65 2.36,2.35 4.64,-4.64 A 46.8,46.8 0 0 1 97,31.49 l -5.69,3.28 1.66,2.89 5.7,-3.29 a 46.58,46.58 0 0 1 3.48,8.4 l -6.35,1.7 0.86,3.22 L 103,46 a 47.67,47.67 0 0 1 1.18,9 h -6.6 z"
         id="path855" />
      <path
         class="cls-2"
         d="m 56.68,4.73 a 52,52 0 1 0 52,52 52,52 0 0 0 -52,-52 z m 46.32,62.62 -6.36,-1.71 -0.86,3.22 6.36,1.71 A 47.28,47.28 0 0 1 98.65,79 l -5.72,-3.29 -1.66,2.88 5.73,3.27 a 48,48 0 0 1 -5.55,7.21 l -4.65,-4.66 -2.36,2.36 4.66,4.65 A 48,48 0 0 1 81.87,97 l -3.3,-5.72 -2.88,1.67 3.31,5.69 a 46.58,46.58 0 0 1 -8.4,3.48 l -1.71,-6.37 -3.22,0.86 1.7,6.37 a 47.67,47.67 0 0 1 -9,1.18 V 97.57 H 55 v 6.59 A 47.67,47.67 0 0 1 46,103 l 1.7,-6.37 -3.22,-0.86 -1.7,6.37 a 47,47 0 0 1 -8.41,-3.48 l 3.3,-5.72 -2.88,-1.67 -3.3,5.73 a 48,48 0 0 1 -7.21,-5.55 l 4.65,-4.65 -2.35,-2.36 -4.65,4.66 a 47.37,47.37 0 0 1 -5.54,-7.22 l 5.7,-3.29 -1.66,-2.88 -5.72,3.29 a 47.28,47.28 0 0 1 -3.47,-8.4 l 6.36,-1.71 -0.86,-3.22 -6.36,1.71 a 47.78,47.78 0 0 1 -1.18,-9 h 6.58 V 55 H 9.2 a 47.67,47.67 0 0 1 1.18,-9 l 6.36,1.7 0.86,-3.22 -6.35,-1.7 a 46.58,46.58 0 0 1 3.48,-8.4 l 5.7,3.29 1.66,-2.89 -5.69,-3.29 a 46.8,46.8 0 0 1 5.54,-7.21 l 4.64,4.64 2.35,-2.35 -4.64,-4.65 a 47.88,47.88 0 0 1 7.21,-5.53 l 3.29,5.69 2.88,-1.67 -3.29,-5.69 a 46.88,46.88 0 0 1 8.4,-3.48 l 1.7,6.35 L 47.7,16.73 46,10.38 A 46.87,46.87 0 0 1 55,9.2 v 6.57 h 3.34 V 9.2 a 46.87,46.87 0 0 1 9,1.18 l -1.7,6.35 3.22,0.86 1.7,-6.35 A 46.88,46.88 0 0 1 79,14.72 l -3.29,5.69 2.88,1.67 3.29,-5.69 a 47.88,47.88 0 0 1 7.21,5.53 l -4.65,4.65 2.36,2.35 4.64,-4.64 A 46.8,46.8 0 0 1 97,31.49 l -5.69,3.28 1.66,2.89 5.7,-3.29 a 46.58,46.58 0 0 1 3.48,8.4 l -6.35,1.7 0.86,3.22 L 103,46 a 47.67,47.67 0 0 1 1.18,9 h -6.6 v 3.33 h 6.58 A 47.78,47.78 0 0 1 103,67.35 Z"
         id="path857" />
      <path
         class="cls-2"
         d="M 56.68,20.17 A 36.51,36.51 0 1 0 93.19,56.68 36.52,36.52 0 0 0 56.68,20.17 Z m 0.06,71.38 A 34.88,34.88 0 1 1 91.56,56.61 34.89,34.89 0 0 1 56.74,91.55 Z"
         id="path859" />
      <polygon
         class="cls-2"
         points="34.16,66.83 30.2,66.83 30.2,49.36 27.87,46.73 27.87,46.63 33.74,46.63 43.53,59.77 43.53,46.63 47.49,46.63 47.49,66.83 43.78,66.83 34.16,53.73 "
         id="polygon861" />
      <path
         class="cls-2"
         d="m 64.91,56 c -0.15,-0.07 -0.38,-0.15 -0.38,-0.15 a 1.34,1.34 0 0 0 0.35,-0.15 4.28,4.28 0 0 0 2,-4 A 4.07,4.07 0 0 0 65.3,48 c -1,-0.83 -2.84,-1.36 -5.38,-1.36 h -9.53 v 0.19 l 2.69,2.57 v 17.44 h 6.8 c 2.86,0 4.71,-0.54 6.09,-1.51 a 5.29,5.29 0 0 0 2,-4.56 A 4.74,4.74 0 0 0 64.91,56 Z m -7.58,-6.08 h 2.34 c 2.32,0.16 2.86,1.27 2.86,2.47 0,1.6 -1,2.54 -3,2.54 h -2.2 z m 2.53,13.7 H 57.33 V 57.78 H 60 c 2.38,0 3.42,1 3.42,3 0,2 -1.21,2.79 -3.56,2.79 z"
         id="path863" />
      <path
         class="cls-2"
         d="m 85.18,48.82 c -0.93,-1 -2.17,-2.19 -6.66,-2.19 h -9.09 v 0.19 l 2.71,2.57 v 17.45 h 4.24 v -7.56 h 0.25 a 22.55,22.55 0 0 0 2.56,0.17 c 1.71,0 4,-0.28 5.5,-1.61 a 5.74,5.74 0 0 0 1.86,-4.78 6.1,6.1 0 0 0 -1.37,-4.24 z m -6.78,7.49 a 7.86,7.86 0 0 1 -1.87,-0.16 h -0.15 v -6.26 h 2.08 c 1.37,0 3.66,0.4 3.66,3.16 0,2 -1.21,3.26 -3.72,3.26 z"
         id="path865" />
    </g>
  </g>
</svg>
